<svg xmlns="http://www.w3.org/2000/svg" xmlns:xlink="http://www.w3.org/1999/xlink" version="1.1" class="marks" width="946" height="160" viewBox="0 0 946 160"><rect width="946" height="160" fill="white"/><g fill="none" stroke-miterlimit="10" transform="translate(173,5)"><g class="mark-group role-frame root" role="graphics-object" aria-roledescription="group mark container"><g transform="translate(0,0)"><path class="background" aria-hidden="true" d="M0,0h600v150h-600Z"/><g><g class="mark-group role-scope layer_0_pathgroup" role="graphics-object" aria-roledescription="group mark container"><g transform="translate(0,0)"><path class="background" aria-hidden="true" d="M0,0h600v150h-600Z"/><g><g class="mark-line role-mark layer_0_marks" role="graphics-object" aria-roledescription="line mark container"><path aria-label="x: 0; rank: 1; Device: Cocina eléctrica" role="graphics-symbol" aria-roledescription="line mark" d="M0,12.5L600,62.5" stroke="#4c78a8" stroke-width="1.5"/></g></g><path class="foreground" aria-hidden="true" d="" display="none"/></g><g transform="translate(0,0)"><path class="background" aria-hidden="true" d="M0,0h600v150h-600Z"/><g><g class="mark-line role-mark layer_0_marks" role="graphics-object" aria-roledescription="line mark container"><path aria-label="x: 0; rank: 5; Device: Refrigerador solar para vacunas" role="graphics-symbol" aria-roledescription="line mark" d="M0,112.5L600,87.5" stroke="#eeca3b" stroke-width="1.5"/></g></g><path class="foreground" aria-hidden="true" d="" display="none"/></g><g transform="translate(0,0)"><path class="background" aria-hidden="true" d="M0,0h600v150h-600Z"/><g><g class="mark-line role-mark layer_0_marks" role="graphics-object" aria-roledescription="line mark container"><path aria-label="x: 0; rank: 2; Device: Ecógrafo" role="graphics-symbol" aria-roledescription="line mark" d="M0,37.5L600,12.5" stroke="#e45756" stroke-width="1.5"/></g></g><path class="foreground" aria-hidden="true" d="" display="none"/></g><g transform="translate(0,0)"><path class="background" aria-hidden="true" d="M0,0h600v150h-600Z"/><g><g class="mark-line role-mark layer_0_marks" role="graphics-object" aria-roledescription="line mark container"><path aria-label="x: 0; rank: 3; Device: Concentrador de oxígeno" role="graphics-symbol" aria-roledescription="line mark" d="M0,62.5L600,137.5" stroke="#f58518" stroke-width="1.5"/></g></g><path class="foreground" aria-hidden="true" d="" display="none"/></g><g transform="translate(0,0)"><path class="background" aria-hidden="true" d="M0,0h600v150h-600Z"/><g><g class="mark-line role-mark layer_0_marks" role="graphics-object" aria-roledescription="line mark container"><path aria-label="x: 0; rank: 4; Device: Ollas eléctricas" role="graphics-symbol" aria-roledescription="line mark" d="M0,87.5L600,37.5" stroke="#54a24b" stroke-width="1.5"/></g></g><path class="foreground" aria-hidden="true" d="" display="none"/></g><g transform="translate(0,0)"><path class="background" aria-hidden="true" d="M0,0h600v150h-600Z"/><g><g class="mark-line role-mark layer_0_marks" role="graphics-object" aria-roledescription="line mark container"><path aria-label="x: 0; rank: 6; Device: Lámpara de cuello de cisne" role="graphics-symbol" aria-roledescription="line mark" d="M0,137.5L600,112.5" stroke="#72b7b2" stroke-width="1.5"/></g></g><path class="foreground" aria-hidden="true" d="" display="none"/></g></g><g class="mark-symbol role-mark layer_1_marks" role="graphics-object" aria-roledescription="symbol mark container"><path aria-label="x: 0; rank: 1; Device: Cocina eléctrica" role="graphics-symbol" aria-roledescription="point" transform="translate(0,12.5)" d="M4.472,0A4.472,4.472,0,1,1,-4.472,0A4.472,4.472,0,1,1,4.472,0" fill="#4c78a8" stroke-width="2" opacity="0.7"/><path aria-label="x: 0; rank: 5; Device: Refrigerador solar para vacunas" role="graphics-symbol" aria-roledescription="point" transform="translate(0,112.5)" d="M4.472,0A4.472,4.472,0,1,1,-4.472,0A4.472,4.472,0,1,1,4.472,0" fill="#eeca3b" stroke-width="2" opacity="0.7"/><path aria-label="x: 0; rank: 2; Device: Ecógrafo" role="graphics-symbol" aria-roledescription="point" transform="translate(0,37.5)" d="M4.472,0A4.472,4.472,0,1,1,-4.472,0A4.472,4.472,0,1,1,4.472,0" fill="#e45756" stroke-width="2" opacity="0.7"/><path aria-label="x: 0; rank: 3; Device: Concentrador de oxígeno" role="graphics-symbol" aria-roledescription="point" transform="translate(0,62.5)" d="M4.472,0A4.472,4.472,0,1,1,-4.472,0A4.472,4.472,0,1,1,4.472,0" fill="#f58518" stroke-width="2" opacity="0.7"/><path aria-label="x: 0; rank: 4; Device: Ollas eléctricas" role="graphics-symbol" aria-roledescription="point" transform="translate(0,87.5)" d="M4.472,0A4.472,4.472,0,1,1,-4.472,0A4.472,4.472,0,1,1,4.472,0" fill="#54a24b" stroke-width="2" opacity="0.7"/><path aria-label="x: 0; rank: 6; Device: Lámpara de cuello de cisne" role="graphics-symbol" aria-roledescription="point" transform="translate(0,137.5)" d="M4.472,0A4.472,4.472,0,1,1,-4.472,0A4.472,4.472,0,1,1,4.472,0" fill="#72b7b2" stroke-width="2" opacity="0.7"/><path aria-label="x: 1; rank: 3; Device: Cocina eléctrica" role="graphics-symbol" aria-roledescription="point" transform="translate(600,62.5)" d="M4.472,0A4.472,4.472,0,1,1,-4.472,0A4.472,4.472,0,1,1,4.472,0" fill="#4c78a8" stroke-width="2" opacity="0.7"/><path aria-label="x: 1; rank: 4; Device: Refrigerador solar para vacunas" role="graphics-symbol" aria-roledescription="point" transform="translate(600,87.5)" d="M4.472,0A4.472,4.472,0,1,1,-4.472,0A4.472,4.472,0,1,1,4.472,0" fill="#eeca3b" stroke-width="2" opacity="0.7"/><path aria-label="x: 1; rank: 1; Device: Ecógrafo" role="graphics-symbol" aria-roledescription="point" transform="translate(600,12.5)" d="M4.472,0A4.472,4.472,0,1,1,-4.472,0A4.472,4.472,0,1,1,4.472,0" fill="#e45756" stroke-width="2" opacity="0.7"/><path aria-label="x: 1; rank: 6; Device: Concentrador de oxígeno" role="graphics-symbol" aria-roledescription="point" transform="translate(600,137.5)" d="M4.472,0A4.472,4.472,0,1,1,-4.472,0A4.472,4.472,0,1,1,4.472,0" fill="#f58518" stroke-width="2" opacity="0.7"/><path aria-label="x: 1; rank: 2; Device: Ollas eléctricas" role="graphics-symbol" aria-roledescription="point" transform="translate(600,37.5)" d="M4.472,0A4.472,4.472,0,1,1,-4.472,0A4.472,4.472,0,1,1,4.472,0" fill="#54a24b" stroke-width="2" opacity="0.7"/><path aria-label="x: 1; rank: 5; Device: Lámpara de cuello de cisne" role="graphics-symbol" aria-roledescription="point" transform="translate(600,112.5)" d="M4.472,0A4.472,4.472,0,1,1,-4.472,0A4.472,4.472,0,1,1,4.472,0" fill="#72b7b2" stroke-width="2" opacity="0.7"/></g><g class="mark-text role-mark layer_2_marks" role="graphics-object" aria-roledescription="text mark container"><text aria-label="x: 0; rank: 1; Device: Cocina eléctrica" role="graphics-symbol" aria-roledescription="text mark" text-anchor="end" transform="translate(-10,15.5)" font-family="sans-serif" font-size="11px" fill="#4c78a8">Cocina eléctrica</text><text aria-label="x: 0; rank: 5; Device: Refrigerador solar para vacunas" role="graphics-symbol" aria-roledescription="text mark" text-anchor="end" transform="translate(-10,115.5)" font-family="sans-serif" font-size="11px" fill="#eeca3b">Refrigerador solar para vacunas</text><text aria-label="x: 0; rank: 2; Device: Ecógrafo" role="graphics-symbol" aria-roledescription="text mark" text-anchor="end" transform="translate(-10,40.5)" font-family="sans-serif" font-size="11px" fill="#e45756">Ecógrafo</text><text aria-label="x: 0; rank: 3; Device: Concentrador de oxígeno" role="graphics-symbol" aria-roledescription="text mark" text-anchor="end" transform="translate(-10,65.5)" font-family="sans-serif" font-size="11px" fill="#f58518">Concentrador de oxígeno</text><text aria-label="x: 0; rank: 4; Device: Ollas eléctricas" role="graphics-symbol" aria-roledescription="text mark" text-anchor="end" transform="translate(-10,90.5)" font-family="sans-serif" font-size="11px" fill="#54a24b">Ollas eléctricas</text><text aria-label="x: 0; rank: 6; Device: Lámpara de cuello de cisne" role="graphics-symbol" aria-roledescription="text mark" text-anchor="end" transform="translate(-10,140.5)" font-family="sans-serif" font-size="11px" fill="#72b7b2">Lámpara de cuello de cisne</text></g><g class="mark-text role-mark layer_3_marks" role="graphics-object" aria-roledescription="text mark container"><text aria-label="x: 1; rank: 3; Device: Cocina eléctrica" role="graphics-symbol" aria-roledescription="text mark" text-anchor="start" transform="translate(610,65.5)" font-family="sans-serif" font-size="11px" fill="#4c78a8">Cocina eléctrica</text><text aria-label="x: 1; rank: 4; Device: Refrigerador solar para vacunas" role="graphics-symbol" aria-roledescription="text mark" text-anchor="start" transform="translate(610,90.5)" font-family="sans-serif" font-size="11px" fill="#eeca3b">Refrigerador solar para vacunas</text><text aria-label="x: 1; rank: 1; Device: Ecógrafo" role="graphics-symbol" aria-roledescription="text mark" text-anchor="start" transform="translate(610,15.5)" font-family="sans-serif" font-size="11px" fill="#e45756">Ecógrafo</text><text aria-label="x: 1; rank: 6; Device: Concentrador de oxígeno" role="graphics-symbol" aria-roledescription="text mark" text-anchor="start" transform="translate(610,140.5)" font-family="sans-serif" font-size="11px" fill="#f58518">Concentrador de oxígeno</text><text aria-label="x: 1; rank: 2; Device: Ollas eléctricas" role="graphics-symbol" aria-roledescription="text mark" text-anchor="start" transform="translate(610,40.5)" font-family="sans-serif" font-size="11px" fill="#54a24b">Ollas eléctricas</text><text aria-label="x: 1; rank: 5; Device: Lámpara de cuello de cisne" role="graphics-symbol" aria-roledescription="text mark" text-anchor="start" transform="translate(610,115.5)" font-family="sans-serif" font-size="11px" fill="#72b7b2">Lámpara de cuello de cisne</text></g></g><path class="foreground" aria-hidden="true" d="" display="none"/></g></g></g></svg>